<svg xmlns="http://www.w3.org/2000/svg" width="1800" height="1126" viewBox="0 0 1800 1126" font-family="system-ui, -apple-system, 'Segoe UI', Roboto, 'Helvetica Neue', Arial, sans-serif">
<title>Golden CGOA: Flux GitOps lab (namespace flux-lab)</title>
<defs><marker id="arrow" viewBox="0 0 10 10" refX="9" refY="5" markerWidth="8" markerHeight="8" orient="auto-start-reverse"><path d="M0,0 L10,5 L0,10 z" fill="#4B5563"/></marker></defs>
<rect x="0" y="0" width="1800" height="1126" fill="#FFFFFF"/>
<text x="40" y="50" font-size="20" font-weight="700" fill="#1F2937">Golden CGOA: Flux GitOps lab (namespace flux-lab)</text>
<text x="40" y="72" font-size="13" fill="#6B7280">./lab.sh kind up, install the flux CLI, then lab/golden/platform/flux/up.sh [status | drift | down]</text>
<g id="group-internet"><rect x="40" y="104" width="560" height="520" rx="8" fill="#F3F4F6" stroke="#6B7280" stroke-width="1.3"/><text x="52" y="124" font-size="14" font-weight="700" fill="#6B7280">Upstream (GitHub / chart repo / ghcr.io)</text></g>
<g id="group-fluxlab"><rect x="640" y="104" width="1120" height="520" rx="8" fill="#EDF5EC" stroke="#5B8C5A" stroke-width="1.3"/><text x="652" y="124" font-size="14" font-weight="700" fill="#5B8C5A">Namespace flux-lab (lab.devops/component: cgoa)</text></g>
<g id="group-imageauto"><rect x="40" y="664" width="620" height="370" rx="8" fill="#F2EFF8" stroke="#7661A3" stroke-width="1.3"/><text x="52" y="684" font-size="14" font-weight="700" fill="#7661A3">Optional: image-automation.yaml (flux-lab)</text></g>
<g id="group-fluxsystem"><rect x="700" y="664" width="680" height="370" rx="8" fill="#EEF1FA" stroke="#50609F" stroke-width="1.3"/><text x="712" y="684" font-size="14" font-weight="700" fill="#50609F">Namespace flux-system (flux install)</text></g>
<g id="group-host"><rect x="1420" y="664" width="340" height="370" rx="8" fill="#F7F6F2" stroke="#7C7466" stroke-width="1.3"/><text x="1432" y="684" font-size="14" font-weight="700" fill="#7C7466">Workstation</text></g>
<g id="group-sources"><rect x="660" y="144" width="330" height="460" rx="8" fill="#EEF1FA" stroke="#50609F" stroke-width="1.3"/><text x="672" y="164" font-size="14" font-weight="700" fill="#50609F">Sources</text></g>
<g id="group-reconcilers"><rect x="1030" y="144" width="330" height="460" rx="8" fill="#EEF1FA" stroke="#50609F" stroke-width="1.3"/><text x="1042" y="164" font-size="14" font-weight="700" fill="#50609F">Reconcilers</text></g>
<g id="group-workloads"><rect x="1400" y="144" width="340" height="460" rx="8" fill="#EDF5EC" stroke="#5B8C5A" stroke-width="1.3"/><text x="1412" y="164" font-size="14" font-weight="700" fill="#5B8C5A">Workloads</text></g>
<g id="node-gitrepo"><path d="M248.0,236.4 C216.0,236.4 216.0,198.0 248.0,195.6 C248.0,162.0 292.0,152.4 312.0,166.8 C324.0,145.2 376.0,147.6 380.0,176.4 C424.0,174.0 424.0,224.4 392.0,229.2 C404.0,260.4 352.0,274.8 332.0,253.2 C312.0,274.8 256.0,270.0 248.0,236.4 Z" fill="#FFFFFF" stroke="#6B7280" stroke-width="1.4"/><text x="320.0" y="182.0" text-anchor="middle" font-size="13" font-weight="600" fill="#1F2937">github.com/</text><text x="320.0" y="199.0" text-anchor="middle" font-size="13" font-weight="600" fill="#1F2937">stefanprodan/</text><text x="320.0" y="216.0" text-anchor="middle" font-size="13" font-weight="600" fill="#1F2937">podinfo</text><text x="320.0" y="232.0" text-anchor="middle" font-size="12" fill="#6B7280">branch master,</text><text x="320.0" y="247.0" text-anchor="middle" font-size="12" fill="#6B7280">./kustomize</text></g>
<g id="node-chartrepo"><path d="M248.0,406.4 C216.0,406.4 216.0,368.0 248.0,365.6 C248.0,332.0 292.0,322.4 312.0,336.8 C324.0,315.2 376.0,317.6 380.0,346.4 C424.0,344.0 424.0,394.4 392.0,399.2 C404.0,430.4 352.0,444.8 332.0,423.2 C312.0,444.8 256.0,440.0 248.0,406.4 Z" fill="#FFFFFF" stroke="#6B7280" stroke-width="1.4"/><text x="320.0" y="368.0" text-anchor="middle" font-size="13" font-weight="600" fill="#1F2937">stefanprodan.</text><text x="320.0" y="385.0" text-anchor="middle" font-size="13" font-weight="600" fill="#1F2937">github.io/podinfo</text><text x="320.0" y="401.0" text-anchor="middle" font-size="12" fill="#6B7280">Helm chart repo</text></g>
<g id="node-ghcr"><path d="M248.0,576.4 C216.0,576.4 216.0,538.0 248.0,535.6 C248.0,502.0 292.0,492.4 312.0,506.8 C324.0,485.2 376.0,487.6 380.0,516.4 C424.0,514.0 424.0,564.4 392.0,569.2 C404.0,600.4 352.0,614.8 332.0,593.2 C312.0,614.8 256.0,610.0 248.0,576.4 Z" fill="#FFFFFF" stroke="#6B7280" stroke-width="1.4"/><text x="320.0" y="529.5" text-anchor="middle" font-size="13" font-weight="600" fill="#1F2937">ghcr.io/</text><text x="320.0" y="546.5" text-anchor="middle" font-size="13" font-weight="600" fill="#1F2937">stefanprodan/</text><text x="320.0" y="563.5" text-anchor="middle" font-size="13" font-weight="600" fill="#1F2937">podinfo</text><text x="320.0" y="579.5" text-anchor="middle" font-size="12" fill="#6B7280">image tags</text></g>
<g id="node-gitsrc"><rect x="720" y="190" width="200" height="60" rx="6" fill="#FFFFFF" stroke="#50609F" stroke-width="1.4"/><text x="820.0" y="216.5" text-anchor="middle" font-size="13" font-weight="600" fill="#1F2937">GitRepository podinfo</text><text x="820.0" y="232.5" text-anchor="middle" font-size="12" fill="#6B7280">interval 1m</text></g>
<g id="node-helmsrc"><rect x="720" y="300" width="200" height="60" rx="6" fill="#FFFFFF" stroke="#50609F" stroke-width="1.4"/><text x="820.0" y="326.5" text-anchor="middle" font-size="13" font-weight="600" fill="#1F2937">HelmRepository podinfo</text><text x="820.0" y="342.5" text-anchor="middle" font-size="12" fill="#6B7280">interval 1h</text></g>
<g id="node-ks"><rect x="1090" y="190" width="200" height="90" rx="6" fill="#FFFFFF" stroke="#50609F" stroke-width="1.4"/><text x="1190.0" y="231.5" text-anchor="middle" font-size="13" font-weight="600" fill="#1F2937">Kustomization podinfo</text><text x="1190.0" y="247.5" text-anchor="middle" font-size="12" fill="#6B7280">prune, wait, every 10m</text></g>
<g id="node-hr"><rect x="1090" y="330" width="200" height="90" rx="6" fill="#FFFFFF" stroke="#50609F" stroke-width="1.4"/><text x="1190.0" y="355.5" text-anchor="middle" font-size="13" font-weight="600" fill="#1F2937">HelmRelease</text><text x="1190.0" y="372.5" text-anchor="middle" font-size="13" font-weight="600" fill="#1F2937">podinfo-helm</text><text x="1190.0" y="388.5" text-anchor="middle" font-size="12" fill="#6B7280">chart &gt;=6 &lt;7,</text><text x="1190.0" y="403.5" text-anchor="middle" font-size="12" fill="#6B7280">driftDetection on</text></g>
<g id="node-dep1"><rect x="1470" y="190" width="200" height="90" rx="6" fill="#FFFFFF" stroke="#5B8C5A" stroke-width="1.4"/><text x="1570.0" y="231.5" text-anchor="middle" font-size="13" font-weight="600" fill="#1F2937">Deployment podinfo</text><text x="1570.0" y="247.5" text-anchor="middle" font-size="12" fill="#6B7280">+ Service + HPA</text></g>
<g id="node-dep2"><rect x="1470" y="330" width="200" height="90" rx="6" fill="#FFFFFF" stroke="#5B8C5A" stroke-width="1.4"/><text x="1570.0" y="355.5" text-anchor="middle" font-size="13" font-weight="600" fill="#1F2937">Deployment</text><text x="1570.0" y="372.5" text-anchor="middle" font-size="13" font-weight="600" fill="#1F2937">podinfo-helm</text><text x="1570.0" y="388.5" text-anchor="middle" font-size="12" fill="#6B7280">2 replicas, real Helm</text><text x="1570.0" y="403.5" text-anchor="middle" font-size="12" fill="#6B7280">release</text></g>
<g id="node-imgrepo"><rect x="250" y="710" width="200" height="70" rx="6" fill="#FFFFFF" stroke="#7661A3" stroke-width="1.4"/><text x="350.0" y="741.5" text-anchor="middle" font-size="13" font-weight="600" fill="#1F2937">ImageRepository</text><text x="350.0" y="757.5" text-anchor="middle" font-size="12" fill="#6B7280">scan every 5m</text></g>
<g id="node-imgpol"><rect x="250" y="830" width="200" height="70" rx="6" fill="#FFFFFF" stroke="#7661A3" stroke-width="1.4"/><text x="350.0" y="861.5" text-anchor="middle" font-size="13" font-weight="600" fill="#1F2937">ImagePolicy</text><text x="350.0" y="877.5" text-anchor="middle" font-size="12" fill="#6B7280">semver 6.x</text></g>
<g id="node-imgupd"><rect x="250" y="950" width="200" height="70" rx="6" fill="#FFFFFF" stroke="#7661A3" stroke-width="1.4"/><text x="350.0" y="974.0" text-anchor="middle" font-size="13" font-weight="600" fill="#1F2937">ImageUpdateAutomation</text><text x="350.0" y="990.0" text-anchor="middle" font-size="12" fill="#6B7280">commits to your fleet</text><text x="350.0" y="1005.0" text-anchor="middle" font-size="12" fill="#6B7280">repo</text></g>
<g id="node-srcctl"><polygon points="796.0,710.0 964.0,710.0 980.0,750.0 964.0,790.0 796.0,790.0 780.0,750.0" fill="#FFFFFF" stroke="#50609F" stroke-width="1.4"/><text x="880.0" y="754.0" text-anchor="middle" font-size="13" font-weight="600" fill="#1F2937">source-controller</text></g>
<g id="node-ksctl"><polygon points="1106.0,710.0 1274.0,710.0 1290.0,750.0 1274.0,790.0 1106.0,790.0 1090.0,750.0" fill="#FFFFFF" stroke="#50609F" stroke-width="1.4"/><text x="1190.0" y="745.5" text-anchor="middle" font-size="13" font-weight="600" fill="#1F2937">kustomize-</text><text x="1190.0" y="762.5" text-anchor="middle" font-size="13" font-weight="600" fill="#1F2937">controller</text></g>
<g id="node-helmctl"><polygon points="796.0,840.0 964.0,840.0 980.0,880.0 964.0,920.0 796.0,920.0 780.0,880.0" fill="#FFFFFF" stroke="#50609F" stroke-width="1.4"/><text x="880.0" y="884.0" text-anchor="middle" font-size="13" font-weight="600" fill="#1F2937">helm-controller</text></g>
<g id="node-imgctl"><polygon points="1106.0,840.0 1274.0,840.0 1290.0,880.0 1274.0,920.0 1106.0,920.0 1090.0,880.0" fill="#FFFFFF" stroke="#50609F" stroke-width="1.4"/><text x="1190.0" y="868.0" text-anchor="middle" font-size="13" font-weight="600" fill="#1F2937">image-reflector +</text><text x="1190.0" y="885.0" text-anchor="middle" font-size="13" font-weight="600" fill="#1F2937">image-automation</text><text x="1190.0" y="901.0" text-anchor="middle" font-size="12" fill="#6B7280">extra components</text></g>
<g id="node-upsh"><rect x="1490" y="710" width="200" height="70" rx="6" fill="#FFFFFF" stroke="#7C7466" stroke-width="1.4"/><text x="1590.0" y="734.0" text-anchor="middle" font-size="13" font-weight="600" fill="#1F2937">up.sh</text><text x="1590.0" y="750.0" text-anchor="middle" font-size="12" fill="#6B7280">flux install, apply</text><text x="1590.0" y="765.0" text-anchor="middle" font-size="12" fill="#6B7280">podinfo.yaml</text></g>
<g id="node-drift"><rect x="1490" y="830" width="200" height="70" rx="6" fill="#FFFFFF" stroke="#7C7466" stroke-width="1.4"/><text x="1590.0" y="854.0" text-anchor="middle" font-size="13" font-weight="600" fill="#1F2937">up.sh drift</text><text x="1590.0" y="870.0" text-anchor="middle" font-size="12" fill="#6B7280">set image 6.0.0 by hand;</text><text x="1590.0" y="885.0" text-anchor="middle" font-size="12" fill="#6B7280">Flux reverts it</text></g>
<path d="M720.0,210.0 L420.0,210.0" fill="none" stroke="#4B5563" stroke-width="1.4" marker-end="url(#arrow)"/>
<path d="M740.0,360.0 L740.0,380.0 L420.0,380.0" fill="none" stroke="#4B5563" stroke-width="1.4" marker-end="url(#arrow)"/>
<path d="M450.0,730.0 L480.0,730.0 L480.0,550.0 L420.0,550.0" fill="none" stroke="#4B5563" stroke-width="1.4" stroke-dasharray="6 4" marker-end="url(#arrow)"/>
<path d="M920.0,220.0 L1090.0,220.0" fill="none" stroke="#4B5563" stroke-width="1.4" marker-end="url(#arrow)"/>
<path d="M920.0,350.0 L1090.0,350.0" fill="none" stroke="#4B5563" stroke-width="1.4" marker-end="url(#arrow)"/>
<path d="M1290.0,230.0 L1470.0,230.0" fill="none" stroke="#4B5563" stroke-width="1.4" marker-end="url(#arrow)"/>
<path d="M1290.0,370.0 L1470.0,370.0" fill="none" stroke="#4B5563" stroke-width="1.4" marker-end="url(#arrow)"/>
<path d="M350.0,780.0 L350.0,830.0" fill="none" stroke="#4B5563" stroke-width="1.4" marker-end="url(#arrow)"/>
<path d="M350.0,900.0 L350.0,950.0" fill="none" stroke="#4B5563" stroke-width="1.4" marker-end="url(#arrow)"/>
<path d="M1040.0,664.0 L1040.0,624.0" fill="none" stroke="#4B5563" stroke-width="1.4" stroke-dasharray="6 4" marker-end="url(#arrow)"/>
<path d="M1510.0,780.0 L1510.0,800.0 L1380.0,800.0" fill="none" stroke="#4B5563" stroke-width="1.4" marker-end="url(#arrow)"/>
<rect x="547.6" y="201.0" width="44.8" height="18.0" rx="3" fill="#FFFFFF" fill-opacity="0.92"/><text x="570.0" y="214.0" text-anchor="middle" font-size="12" fill="#4B5563">fetch</text>
<rect x="557.6" y="371.0" width="44.8" height="18.0" rx="3" fill="#FFFFFF" fill-opacity="0.92"/><text x="580.0" y="384.0" text-anchor="middle" font-size="12" fill="#4B5563">index</text>
<rect x="443.7" y="631.0" width="72.6" height="18.0" rx="3" fill="#FFFFFF" fill-opacity="0.92"/><text x="480.0" y="644.0" text-anchor="middle" font-size="12" fill="#4B5563">list tags</text>
<rect x="1357.6" y="221.0" width="44.8" height="18.0" rx="3" fill="#FFFFFF" fill-opacity="0.92"/><text x="1380.0" y="234.0" text-anchor="middle" font-size="12" fill="#4B5563">apply</text>
<rect x="1361.1" y="361.0" width="37.8" height="18.0" rx="3" fill="#FFFFFF" fill-opacity="0.92"/><text x="1380.0" y="374.0" text-anchor="middle" font-size="12" fill="#4B5563">helm</text>
<rect x="1000.2" y="635.0" width="79.6" height="18.0" rx="3" fill="#FFFFFF" fill-opacity="0.92"/><text x="1040.0" y="648.0" text-anchor="middle" font-size="12" fill="#4B5563">reconciles</text>
<rect x="1415.6" y="791.0" width="58.7" height="18.0" rx="3" fill="#FFFFFF" fill-opacity="0.92"/><text x="1445.0" y="804.0" text-anchor="middle" font-size="12" fill="#4B5563">install</text>
<text x="40" y="1082" font-size="12" font-weight="700" fill="#1F2937">Legend</text>
<rect x="97.75999999999999" y="1070" width="16" height="16" rx="3" fill="#F3F4F6" stroke="#6B7280" stroke-width="1.3"/><text x="119.75999999999999" y="1082" font-size="12" fill="#1F2937">External / cloud</text>
<rect x="255.11999999999998" y="1070" width="16" height="16" rx="3" fill="#EDF5EC" stroke="#5B8C5A" stroke-width="1.3"/><text x="277.12" y="1082" font-size="12" fill="#1F2937">Compute / workloads</text>
<rect x="433.35999999999996" y="1070" width="16" height="16" rx="3" fill="#EEF1FA" stroke="#50609F" stroke-width="1.3"/><text x="455.35999999999996" y="1082" font-size="12" fill="#1F2937">Platform / cluster</text>
<rect x="604.6399999999999" y="1070" width="16" height="16" rx="3" fill="#F2EFF8" stroke="#7661A3" stroke-width="1.3"/><text x="626.6399999999999" y="1082" font-size="12" fill="#1F2937">CI/CD / GitOps</text>
<rect x="748.0799999999999" y="1070" width="16" height="16" rx="3" fill="#F7F6F2" stroke="#7C7466" stroke-width="1.3"/><text x="770.0799999999999" y="1082" font-size="12" fill="#1F2937">Host / tooling</text>
<path d="M891.52,1078 L919.52,1078" stroke="#4B5563" stroke-width="1.4" marker-end="url(#arrow)"/><text x="925.52" y="1082" font-size="12" fill="#1F2937">flow / call</text>
<path d="M1026.08,1078 L1054.08,1078" stroke="#4B5563" stroke-width="1.4" stroke-dasharray="6 4" marker-end="url(#arrow)"/><text x="1060.08" y="1082" font-size="12" fill="#1F2937">provisions / optional</text>
</svg>
