<svg xmlns="http://www.w3.org/2000/svg" width="1900" height="986" viewBox="0 0 1900 986" font-family="system-ui, -apple-system, 'Segoe UI', Roboto, 'Helvetica Neue', Arial, sans-serif">
<title>Golden CKAD: 12 timed tasks in namespace ckad-lab</title>
<defs><marker id="arrow" viewBox="0 0 10 10" refX="9" refY="5" markerWidth="8" markerHeight="8" orient="auto-start-reverse"><path d="M0,0 L10,5 L0,10 z" fill="#4B5563"/></marker></defs>
<rect x="0" y="0" width="1900" height="986" fill="#FFFFFF"/>
<text x="40" y="50" font-size="20" font-weight="700" fill="#1F2937">Golden CKAD: 12 timed tasks in namespace ckad-lab</text>
<text x="40" y="72" font-size="13" fill="#6B7280">./lab.sh kind up [cilium] + ./lab.sh addon ingress; kubectl apply -f lab/golden/ckad/exercises.yaml</text>
<g id="group-client"><rect x="40" y="104" width="260" height="790" rx="8" fill="#F7F6F2" stroke="#7C7466" stroke-width="1.3"/><text x="52" y="124" font-size="14" font-weight="700" fill="#7C7466">Host / add-ons</text></g>
<g id="group-ns"><rect x="340" y="104" width="1520" height="790" rx="8" fill="#EEF1FA" stroke="#50609F" stroke-width="1.3"/><text x="352" y="124" font-size="14" font-weight="700" fill="#50609F">Namespace ckad-lab (lab.devops/component=ckad)</text></g>
<g id="group-design"><rect x="360" y="144" width="290" height="730" rx="8" fill="#EDF5EC" stroke="#5B8C5A" stroke-width="1.3"/><text x="372" y="164" font-size="14" font-weight="700" fill="#5B8C5A">Design &amp; Build (t1-t4)</text></g>
<g id="group-deploy"><rect x="690" y="144" width="410" height="730" rx="8" fill="#EDF5EC" stroke="#5B8C5A" stroke-width="1.3"/><text x="702" y="164" font-size="14" font-weight="700" fill="#5B8C5A">Deployment + Observability (t5-t7)</text></g>
<g id="group-config"><rect x="1140" y="144" width="380" height="730" rx="8" fill="#FBEEEE" stroke="#A65656" stroke-width="1.3"/><text x="1152" y="164" font-size="14" font-weight="700" fill="#A65656">Config, Security, RBAC (t8-t10)</text></g>
<g id="group-net"><rect x="1560" y="144" width="280" height="730" rx="8" fill="#EAF1FA" stroke="#4A78A8" stroke-width="1.3"/><text x="1572" y="164" font-size="14" font-weight="700" fill="#4A78A8">Networking (t11-t12)</text></g>
<g id="node-curl"><path d="M98.0,200.4 C66.0,200.4 66.0,178.0 98.0,176.6 C98.0,157.0 142.0,151.4 162.0,159.8 C174.0,147.2 226.0,148.6 230.0,165.4 C274.0,164.0 274.0,193.4 242.0,196.2 C254.0,214.4 202.0,222.8 182.0,210.2 C162.0,222.8 106.0,220.0 98.0,200.4 Z" fill="#FFFFFF" stroke="#7C7466" stroke-width="1.4"/><text x="170.0" y="181.5" text-anchor="middle" font-size="13" font-weight="600" fill="#1F2937">curl from host</text><text x="170.0" y="197.5" text-anchor="middle" font-size="12" fill="#6B7280">Host: ckad.lab.local</text></g>
<g id="node-ingress-nginx"><polygon points="86.0,270.0 254.0,270.0 270.0,305.0 254.0,340.0 86.0,340.0 70.0,305.0" fill="#FFFFFF" stroke="#7C7466" stroke-width="1.4"/><text x="170.0" y="301.5" text-anchor="middle" font-size="13" font-weight="600" fill="#1F2937">ingress-nginx</text><text x="170.0" y="317.5" text-anchor="middle" font-size="12" fill="#6B7280">addon ingress</text></g>
<g id="node-cilium"><polygon points="86.0,390.0 254.0,390.0 270.0,425.0 254.0,460.0 86.0,460.0 70.0,425.0" fill="#FFFFFF" stroke="#7C7466" stroke-width="1.4"/><text x="170.0" y="421.5" text-anchor="middle" font-size="13" font-weight="600" fill="#1F2937">Cilium CNI</text><text x="170.0" y="437.5" text-anchor="middle" font-size="12" fill="#6B7280">kind up cilium (t12)</text></g>
<g id="node-t1"><rect x="400" y="190" width="200" height="90" rx="6" fill="#FFFFFF" stroke="#5B8C5A" stroke-width="1.4"/><text x="500.0" y="224.0" text-anchor="middle" font-size="13" font-weight="600" fill="#1F2937">t1-sidecar</text><text x="500.0" y="240.0" text-anchor="middle" font-size="12" fill="#6B7280">init seed + native</text><text x="500.0" y="255.0" text-anchor="middle" font-size="12" fill="#6B7280">sidecar</text></g>
<g id="node-t2"><rect x="400" y="330" width="200" height="90" rx="6" fill="#FFFFFF" stroke="#5B8C5A" stroke-width="1.4"/><text x="500.0" y="371.5" text-anchor="middle" font-size="13" font-weight="600" fill="#1F2937">t2-job</text><text x="500.0" y="387.5" text-anchor="middle" font-size="12" fill="#6B7280">4 completions, par. 2</text></g>
<g id="node-t3"><rect x="400" y="470" width="200" height="90" rx="6" fill="#FFFFFF" stroke="#5B8C5A" stroke-width="1.4"/><text x="500.0" y="504.0" text-anchor="middle" font-size="13" font-weight="600" fill="#1F2937">t3-cron</text><text x="500.0" y="520.0" text-anchor="middle" font-size="12" fill="#6B7280">*/2 min, Forbid;</text><text x="500.0" y="535.0" text-anchor="middle" font-size="12" fill="#6B7280">t3-manual</text></g>
<g id="node-t4pod"><rect x="400" y="610" width="200" height="90" rx="6" fill="#FFFFFF" stroke="#5B8C5A" stroke-width="1.4"/><text x="500.0" y="651.5" text-anchor="middle" font-size="13" font-weight="600" fill="#1F2937">t4-writer</text><text x="500.0" y="667.5" text-anchor="middle" font-size="12" fill="#6B7280">appends /data/out.log</text></g>
<g id="node-t4pvc"><path d="M400,757 a100.0,7 0 0,0 200,0 a100.0,7 0 0,0 -200,0 Z" fill="#FFFFFF" stroke="#5B8C5A" stroke-width="1.4"/><path d="M400,757 a100.0,7 0 0,1 200,0 v76 a100.0,7 0 0,1 -200,0 Z" fill="#FFFFFF" stroke="#5B8C5A" stroke-width="1.4"/><path d="M400,757 a100.0,7 0 0,0 200,0" fill="none" stroke="#5B8C5A" stroke-width="1.4"/><text x="500.0" y="794.5" text-anchor="middle" font-size="13" font-weight="600" fill="#1F2937">PVC t4-data</text><text x="500.0" y="810.5" text-anchor="middle" font-size="12" fill="#6B7280">100Mi RWO</text></g>
<g id="node-t5"><rect x="790" y="190" width="200" height="70" rx="6" fill="#FFFFFF" stroke="#5B8C5A" stroke-width="1.4"/><text x="890.0" y="214.0" text-anchor="middle" font-size="13" font-weight="600" fill="#1F2937">Deploy t5-web</text><text x="890.0" y="230.0" text-anchor="middle" font-size="12" fill="#6B7280">3x nginx 1.26 -&gt; 1.27 -&gt;</text><text x="890.0" y="245.0" text-anchor="middle" font-size="12" fill="#6B7280">undo</text></g>
<g id="node-t6svc"><rect x="790" y="310" width="200" height="70" rx="6" fill="#FFFFFF" stroke="#5B8C5A" stroke-width="1.4"/><text x="890.0" y="334.0" text-anchor="middle" font-size="13" font-weight="600" fill="#1F2937">Service t6-web</text><text x="890.0" y="350.0" text-anchor="middle" font-size="12" fill="#6B7280">selector</text><text x="890.0" y="365.0" text-anchor="middle" font-size="12" fill="#6B7280">version=blue|green</text></g>
<g id="node-t6b"><rect x="790" y="430" width="200" height="70" rx="6" fill="#FFFFFF" stroke="#5B8C5A" stroke-width="1.4"/><text x="890.0" y="461.5" text-anchor="middle" font-size="13" font-weight="600" fill="#1F2937">t6-blue</text><text x="890.0" y="477.5" text-anchor="middle" font-size="12" fill="#6B7280">nginx:1.26</text></g>
<g id="node-t6g"><rect x="790" y="550" width="200" height="70" rx="6" fill="#FFFFFF" stroke="#5B8C5A" stroke-width="1.4"/><text x="890.0" y="581.5" text-anchor="middle" font-size="13" font-weight="600" fill="#1F2937">t6-green</text><text x="890.0" y="597.5" text-anchor="middle" font-size="12" fill="#6B7280">nginx:1.27</text></g>
<g id="node-t7"><rect x="790" y="670" width="200" height="70" rx="6" fill="#FFFFFF" stroke="#5B8C5A" stroke-width="1.4"/><text x="890.0" y="694.0" text-anchor="middle" font-size="13" font-weight="600" fill="#1F2937">t7-probes</text><text x="890.0" y="710.0" text-anchor="middle" font-size="12" fill="#6B7280">startup, readiness,</text><text x="890.0" y="725.0" text-anchor="middle" font-size="12" fill="#6B7280">liveness</text></g>
<g id="node-t8cm"><rect x="1230" y="190" width="200" height="70" rx="6" fill="#FFFFFF" stroke="#A65656" stroke-width="1.4"/><text x="1330.0" y="221.5" text-anchor="middle" font-size="13" font-weight="600" fill="#1F2937">ConfigMap t8-config</text><text x="1330.0" y="237.5" text-anchor="middle" font-size="12" fill="#6B7280">+ Secret t8-secret</text></g>
<g id="node-t8pod"><rect x="1230" y="310" width="200" height="70" rx="6" fill="#FFFFFF" stroke="#A65656" stroke-width="1.4"/><text x="1330.0" y="341.5" text-anchor="middle" font-size="13" font-weight="600" fill="#1F2937">t8-config-pod</text><text x="1330.0" y="357.5" text-anchor="middle" font-size="12" fill="#6B7280">env + /etc/app</text></g>
<g id="node-t9"><rect x="1230" y="430" width="200" height="70" rx="6" fill="#FFFFFF" stroke="#A65656" stroke-width="1.4"/><text x="1330.0" y="454.0" text-anchor="middle" font-size="13" font-weight="600" fill="#1F2937">t9-secure</text><text x="1330.0" y="470.0" text-anchor="middle" font-size="12" fill="#6B7280">SA t9-app, UID 1000, RO</text><text x="1330.0" y="485.0" text-anchor="middle" font-size="12" fill="#6B7280">root</text></g>
<g id="node-t10q"><rect x="1230" y="550" width="200" height="70" rx="6" fill="#FFFFFF" stroke="#A65656" stroke-width="1.4"/><text x="1330.0" y="581.5" text-anchor="middle" font-size="13" font-weight="600" fill="#1F2937">t10-quota</text><text x="1330.0" y="597.5" text-anchor="middle" font-size="12" fill="#6B7280">+ LimitRange t10-defaults</text></g>
<g id="node-t10sa"><rect x="1230" y="670" width="200" height="70" rx="6" fill="#FFFFFF" stroke="#A65656" stroke-width="1.4"/><text x="1330.0" y="701.5" text-anchor="middle" font-size="13" font-weight="600" fill="#1F2937">SA t10-reader</text><text x="1330.0" y="717.5" text-anchor="middle" font-size="12" fill="#6B7280">Role t10-pod-reader</text></g>
<g id="node-t11ing"><rect x="1600" y="190" width="200" height="70" rx="6" fill="#FFFFFF" stroke="#4A78A8" stroke-width="1.4"/><text x="1700.0" y="221.5" text-anchor="middle" font-size="13" font-weight="600" fill="#1F2937">Ingress t11-ingress</text><text x="1700.0" y="237.5" text-anchor="middle" font-size="12" fill="#6B7280">ckad.lab.local</text></g>
<g id="node-t11svc"><rect x="1600" y="310" width="200" height="70" rx="6" fill="#FFFFFF" stroke="#4A78A8" stroke-width="1.4"/><text x="1700.0" y="341.5" text-anchor="middle" font-size="13" font-weight="600" fill="#1F2937">Service t11-api</text><text x="1700.0" y="357.5" text-anchor="middle" font-size="12" fill="#6B7280">ClusterIP :8080 -&gt; http</text></g>
<g id="node-t11dep"><rect x="1600" y="430" width="200" height="70" rx="6" fill="#FFFFFF" stroke="#4A78A8" stroke-width="1.4"/><text x="1700.0" y="461.5" text-anchor="middle" font-size="13" font-weight="600" fill="#1F2937">Deploy t11-api</text><text x="1700.0" y="477.5" text-anchor="middle" font-size="12" fill="#6B7280">2x nginx :80</text></g>
<g id="node-t12f"><rect x="1600" y="550" width="200" height="70" rx="6" fill="#FFFFFF" stroke="#4A78A8" stroke-width="1.4"/><text x="1700.0" y="581.5" text-anchor="middle" font-size="13" font-weight="600" fill="#1F2937">t12-frontend</text><text x="1700.0" y="597.5" text-anchor="middle" font-size="12" fill="#6B7280">role=frontend</text></g>
<g id="node-t12i"><rect x="1600" y="670" width="200" height="70" rx="6" fill="#FFFFFF" stroke="#4A78A8" stroke-width="1.4"/><text x="1700.0" y="701.5" text-anchor="middle" font-size="13" font-weight="600" fill="#1F2937">t12-intruder</text><text x="1700.0" y="717.5" text-anchor="middle" font-size="12" fill="#6B7280">no role label</text></g>
<g id="node-t12np"><polygon points="1616.0,790.0 1784.0,790.0 1800.0,825.0 1784.0,860.0 1616.0,860.0 1600.0,825.0" fill="#FFFFFF" stroke="#4A78A8" stroke-width="1.4"/><text x="1700.0" y="814.0" text-anchor="middle" font-size="13" font-weight="600" fill="#1F2937">NetworkPolicy</text><text x="1700.0" y="830.0" text-anchor="middle" font-size="12" fill="#6B7280">t12-api-allow-</text><text x="1700.0" y="845.0" text-anchor="middle" font-size="12" fill="#6B7280">frontend</text></g>
<path d="M500.0,700.0 L500.0,750.0" fill="none" stroke="#4B5563" stroke-width="1.4" marker-end="url(#arrow)"/>
<path d="M890.0,380.0 L890.0,430.0" fill="none" stroke="#4B5563" stroke-width="1.4" stroke-dasharray="6 4" marker-end="url(#arrow)"/>
<path d="M790.0,360.0 L760.0,360.0 L760.0,570.0 L790.0,570.0" fill="none" stroke="#4B5563" stroke-width="1.4" marker-end="url(#arrow)"/>
<path d="M1330.0,260.0 L1330.0,310.0" fill="none" stroke="#4B5563" stroke-width="1.4" marker-end="url(#arrow)"/>
<path d="M170.0,220.0 L170.0,270.0" fill="none" stroke="#4B5563" stroke-width="1.4" marker-end="url(#arrow)"/>
<path d="M270.0,300.0 L330.0,300.0 L330.0,90.0 L1550.0,90.0 L1550.0,210.0 L1600.0,210.0" fill="none" stroke="#4B5563" stroke-width="1.4" marker-end="url(#arrow)"/>
<path d="M1700.0,260.0 L1700.0,310.0" fill="none" stroke="#4B5563" stroke-width="1.4" marker-end="url(#arrow)"/>
<path d="M1700.0,380.0 L1700.0,430.0" fill="none" stroke="#4B5563" stroke-width="1.4" marker-end="url(#arrow)"/>
<path d="M1600.0,570.0 L1570.0,570.0 L1570.0,360.0 L1600.0,360.0" fill="none" stroke="#4B5563" stroke-width="1.4" marker-end="url(#arrow)"/>
<path d="M1700.0,740.0 L1700.0,790.0" fill="none" stroke="#4B5563" stroke-width="1.4" stroke-dasharray="6 4" marker-end="url(#arrow)"/>
<path d="M1800.0,820.0 L1830.0,820.0 L1830.0,480.0 L1800.0,480.0" fill="none" stroke="#4B5563" stroke-width="1.4" marker-end="url(#arrow)"/>
<path d="M210.0,460.0 L210.0,900.0 L1660.0,900.0 L1660.0,860.0" fill="none" stroke="#4B5563" stroke-width="1.4" stroke-dasharray="6 4" marker-end="url(#arrow)"/>
<rect x="456.7" y="716.0" width="86.6" height="18.0" rx="3" fill="#FFFFFF" fill-opacity="0.92"/><text x="500.0" y="729.0" text-anchor="middle" font-size="12" fill="#4B5563">mount /data</text>
<rect x="864.1" y="396.0" width="51.8" height="18.0" rx="3" fill="#FFFFFF" fill-opacity="0.92"/><text x="890.0" y="409.0" text-anchor="middle" font-size="12" fill="#4B5563">before</text>
<rect x="716.7" y="403.5" width="86.6" height="18.0" rx="3" fill="#FFFFFF" fill-opacity="0.92"/><text x="760.0" y="416.5" text-anchor="middle" font-size="12" fill="#4B5563">after patch</text>
<rect x="1283.2" y="276.0" width="93.5" height="18.0" rx="3" fill="#FFFFFF" fill-opacity="0.92"/><text x="1330.0" y="289.0" text-anchor="middle" font-size="12" fill="#4B5563">env + volume</text>
<rect x="154.6" y="236.0" width="30.9" height="18.0" rx="3" fill="#FFFFFF" fill-opacity="0.92"/><text x="170.0" y="249.0" text-anchor="middle" font-size="12" fill="#4B5563">:80</text>
<rect x="1674.1" y="396.0" width="51.8" height="18.0" rx="3" fill="#FFFFFF" fill-opacity="0.92"/><text x="1700.0" y="409.0" text-anchor="middle" font-size="12" fill="#4B5563">TCP 80</text>
<rect x="1540.6" y="508.5" width="58.7" height="18.0" rx="3" fill="#FFFFFF" fill-opacity="0.92"/><text x="1570.0" y="521.5" text-anchor="middle" font-size="12" fill="#4B5563">allowed</text>
<rect x="1674.1" y="756.0" width="51.8" height="18.0" rx="3" fill="#FFFFFF" fill-opacity="0.92"/><text x="1700.0" y="769.0" text-anchor="middle" font-size="12" fill="#4B5563">denied</text>
<rect x="1804.1" y="641.0" width="51.8" height="18.0" rx="3" fill="#FFFFFF" fill-opacity="0.92"/><text x="1830.0" y="654.0" text-anchor="middle" font-size="12" fill="#4B5563">guards</text>
<rect x="902.2" y="891.0" width="65.7" height="18.0" rx="3" fill="#FFFFFF" fill-opacity="0.92"/><text x="935.0" y="904.0" text-anchor="middle" font-size="12" fill="#4B5563">enforces</text>
<text x="40" y="942" font-size="12" font-weight="700" fill="#1F2937">Legend</text>
<rect x="97.75999999999999" y="930" width="16" height="16" rx="3" fill="#F7F6F2" stroke="#7C7466" stroke-width="1.3"/><text x="119.75999999999999" y="942" font-size="12" fill="#1F2937">Host / tooling</text>
<rect x="241.2" y="930" width="16" height="16" rx="3" fill="#EEF1FA" stroke="#50609F" stroke-width="1.3"/><text x="263.2" y="942" font-size="12" fill="#1F2937">Platform / cluster</text>
<rect x="412.47999999999996" y="930" width="16" height="16" rx="3" fill="#EDF5EC" stroke="#5B8C5A" stroke-width="1.3"/><text x="434.47999999999996" y="942" font-size="12" fill="#1F2937">Compute / workloads</text>
<rect x="590.7199999999999" y="930" width="16" height="16" rx="3" fill="#FBEEEE" stroke="#A65656" stroke-width="1.3"/><text x="612.7199999999999" y="942" font-size="12" fill="#1F2937">Security / policy</text>
<rect x="755.04" y="930" width="16" height="16" rx="3" fill="#EAF1FA" stroke="#4A78A8" stroke-width="1.3"/><text x="777.04" y="942" font-size="12" fill="#1F2937">Network / ingress</text>
<path d="M919.3599999999999,938 L947.3599999999999,938" stroke="#4B5563" stroke-width="1.4" marker-end="url(#arrow)"/><text x="953.3599999999999" y="942" font-size="12" fill="#1F2937">flow / call</text>
<path d="M1053.9199999999998,938 L1081.9199999999998,938" stroke="#4B5563" stroke-width="1.4" stroke-dasharray="6 4" marker-end="url(#arrow)"/><text x="1087.9199999999998" y="942" font-size="12" fill="#1F2937">provisions / optional</text>
</svg>
